0
SECTION
2
HEADER
9
$INSUNITS
70
4
9
$ACADVER
1
AC1014
9
$HANDSEED
5
FFFF
0
ENDSEC
0
SECTION
2
TABLES
0
TABLE
2
VPORT
5
8
100
AcDbSymbolTable
0
ENDTAB
0
TABLE
2
LTYPE
5
5
100
AcDbSymbolTable
0
LTYPE
5
14
100
AcDbSymbolTableRecord
100
AcDbLinetypeTableRecord
2
BYBLOCK
70
0
0
LTYPE
5
15
100
AcDbSymbolTableRecord
100
AcDbLinetypeTableRecord
2
BYLAYER
70
0
0
ENDTAB
0
TABLE
2
LAYER
5
2
100
AcDbSymbolTable
70
2
0
LAYER
5
50
100
AcDbSymbolTableRecord
100
AcDbLayerTableRecord
2
0
70
0
6
CONTINUOUS
0
ENDTAB
0
TABLE
2
STYLE
5
3
100
AcDbSymbolTable
70
1
0
STYLE
5
11
100
AcDbSymbolTableRecord
100
AcDbTextStyleTableRecord
2
STANDARD
70
0
0
ENDTAB
0
TABLE
2
VIEW
5
6
100
AcDbSymbolTable
70
0
0
ENDTAB
0
TABLE
2
UCS
5
7
100
AcDbSymbolTable
70
0
0
ENDTAB
0
TABLE
2
APPID
5
9
100
AcDbSymbolTable
70
2
0
APPID
5
12
100
AcDbSymbolTableRecord
100
AcDbRegAppTableRecord
2
ACAD
70
0
0
ENDTAB
0
TABLE
2
DIMSTYLE
5
A
100
AcDbSymbolTable
70
1
0
ENDTAB
0
TABLE
2
BLOCK_RECORD
5
1
100
AcDbSymbolTable
70
1
0
BLOCK_RECORD
5
1F
100
AcDbSymbolTableRecord
100
AcDbBlockTableRecord
2
*MODEL_SPACE
0
BLOCK_RECORD
5
1B
100
AcDbSymbolTableRecord
100
AcDbBlockTableRecord
2
*PAPER_SPACE
0
ENDTAB
0
ENDSEC
0
SECTION
2
BLOCKS
0
BLOCK
5
20
100
AcDbEntity
100
AcDbBlockBegin
2
*MODEL_SPACE
0
ENDBLK
5
21
100
AcDbEntity
100
AcDbBlockEnd
0
BLOCK
5
1C
100
AcDbEntity
100
AcDbBlockBegin
2
*PAPER_SPACE
0
ENDBLK
5
1D
100
AcDbEntity
100
AcDbBlockEnd
0
ENDSEC
0
SECTION
2
ENTITIES
0
LWPOLYLINE
5
100
100
AcDbEntity
8
0
100
AcDbPolyline
90
8
70
1
43
0.0
10
361.60074866206293
20
219.78164327206883
42
-0.41421356237309503
10
386.60074866206293
20
194.78164327206883
10
386.60074866206276
20
71.581643272068902
42
-0.4142135623730942
10
361.60074866206298
20
46.581643272069101
10
75.200748662063035
20
46.581643272069101
42
-0.41421356237309309
10
50.200748662063077
20
71.581643272068902
10
50.200748662063077
20
194.78164327206883
42
-0.41421356237309503
10
75.200748662063077
20
219.78164327206883
0
LINE
5
101
100
AcDbEntity
8
0
100
AcDbLine
10
218.40074866206294
20
140.37136299206881
30
0
11
218.40074866206299
21
25
31
0
0
LINE
5
102
100
AcDbEntity
8
0
100
AcDbLine
10
76.817531574789967
20
148.82745358579609
30
0
11
63.01753157478997
21
148.82745358579609
31
0
0
LINE
5
103
100
AcDbEntity
8
0
100
AcDbLine
10
63.01753157478997
20
148.82745358579609
30
0
11
63.01753157478997
21
162.62745358579608
31
0
0
LINE
5
104
100
AcDbEntity
8
0
100
AcDbLine
10
63.01753157478997
20
162.62745358579608
30
0
11
76.817531574789967
21
162.62745358579608
31
0
0
LINE
5
105
100
AcDbEntity
8
0
100
AcDbLine
10
76.817531574789967
20
162.62745358579608
30
0
11
76.817531574789967
21
148.82745358579609
31
0
0
LINE
5
106
100
AcDbEntity
8
0
100
AcDbLine
10
76.817531574789967
20
148.82745358579609
30
0
11
63.01753157478997
21
162.62745358579608
31
0
0
LINE
5
107
100
AcDbEntity
8
0
100
AcDbLine
10
63.01753157478997
20
148.82745358579609
30
0
11
76.817531574789967
21
162.62745358579608
31
0
0
LINE
5
108
100
AcDbEntity
8
0
100
AcDbLine
10
90.728191909257973
20
162.58777868568768
30
0
11
90.728191909257973
21
176.38777868568766
31
0
0
LINE
5
109
100
AcDbEntity
8
0
100
AcDbLine
10
90.728191909257973
20
162.58777868568768
30
0
11
104.52819190925797
21
176.38777868568766
31
0
0
LINE
5
110
100
AcDbEntity
8
0
100
AcDbLine
10
104.52819190925797
20
162.5877786856876
30
0
11
90.728191909257973
21
176.38777868568766
31
0
0
LINE
5
111
100
AcDbEntity
8
0
100
AcDbLine
10
90.728191909257973
20
176.38777868568766
30
0
11
104.52819190925797
21
176.38777868568766
31
0
0
LINE
5
112
100
AcDbEntity
8
0
100
AcDbLine
10
104.52819190925797
20
176.38777868568766
30
0
11
104.52819190925797
21
162.5877786856876
31
0
0
LINE
5
113
100
AcDbEntity
8
0
100
AcDbLine
10
104.52819190925797
20
162.5877786856876
30
0
11
90.728191909257973
21
162.58777868568768
31
0
0
LINE
5
114
100
AcDbEntity
8
0
100
AcDbLine
10
133.05031934672414
20
163.1321368038731
30
0
11
119.25031934672413
21
176.93213680387316
31
0
0
LINE
5
115
100
AcDbEntity
8
0
100
AcDbLine
10
119.25031934672413
20
163.13213680387318
30
0
11
119.25031934672413
21
176.93213680387316
31
0
0
LINE
5
116
100
AcDbEntity
8
0
100
AcDbLine
10
119.25031934672413
20
163.13213680387318
30
0
11
133.05031934672414
21
176.93213680387316
31
0
0
LINE
5
117
100
AcDbEntity
8
0
100
AcDbLine
10
133.05031934672414
20
163.1321368038731
30
0
11
119.25031934672413
21
163.13213680387318
31
0
0
LINE
5
118
100
AcDbEntity
8
0
100
AcDbLine
10
119.25031934672413
20
176.93213680387316
30
0
11
133.05031934672414
21
176.93213680387316
31
0
0
LINE
5
119
100
AcDbEntity
8
0
100
AcDbLine
10
133.05031934672414
20
176.93213680387316
30
0
11
133.05031934672414
21
163.1321368038731
31
0
0
LINE
5
120
100
AcDbEntity
8
0
100
AcDbLine
10
157.98573884985521
20
149.09982338098928
30
0
11
144.1857388498552
21
149.09982338098919
31
0
0
LINE
5
121
100
AcDbEntity
8
0
100
AcDbLine
10
144.1857388498552
20
149.09982338098919
30
0
11
157.98573884985521
21
162.89982338098918
31
0
0
LINE
5
122
100
AcDbEntity
8
0
100
AcDbLine
10
157.98573884985521
20
149.09982338098928
30
0
11
144.1857388498552
21
162.89982338098918
31
0
0
LINE
5
123
100
AcDbEntity
8
0
100
AcDbLine
10
157.98573884985521
20
162.89982338098918
30
0
11
157.98573884985521
21
149.09982338098928
31
0
0
LINE
5
124
100
AcDbEntity
8
0
100
AcDbLine
10
144.1857388498552
20
162.89982338098918
30
0
11
157.98573884985521
21
162.89982338098918
31
0
0
LINE
5
125
100
AcDbEntity
8
0
100
AcDbLine
10
144.1857388498552
20
149.09982338098919
30
0
11
144.1857388498552
21
162.89982338098918
31
0
0
LINE
5
126
100
AcDbEntity
8
0
100
AcDbLine
10
292.61575847427059
20
148.89982338098918
30
0
11
278.81575847427058
21
162.69982338098924
31
0
0
LINE
5
127
100
AcDbEntity
8
0
100
AcDbLine
10
278.81575847427058
20
162.69982338098924
30
0
11
292.61575847427059
21
162.69982338098924
31
0
0
LINE
5
128
100
AcDbEntity
8
0
100
AcDbLine
10
278.81575847427058
20
148.89982338098923
30
0
11
292.61575847427059
21
162.69982338098924
31
0
0
LINE
5
129
100
AcDbEntity
8
0
100
AcDbLine
10
292.61575847427059
20
148.89982338098918
30
0
11
278.81575847427058
21
148.89982338098923
31
0
0
LINE
5
130
100
AcDbEntity
8
0
100
AcDbLine
10
278.81575847427058
20
148.89982338098923
30
0
11
278.81575847427058
21
162.69982338098924
31
0
0
LINE
5
131
100
AcDbEntity
8
0
100
AcDbLine
10
292.61575847427059
20
162.69982338098924
30
0
11
292.61575847427059
21
148.89982338098918
31
0
0
LINE
5
132
100
AcDbEntity
8
0
100
AcDbLine
10
317.75117797740165
20
163.13213680387321
30
0
11
303.95117797740164
21
176.93213680387328
31
0
0
LINE
5
133
100
AcDbEntity
8
0
100
AcDbLine
10
303.95117797740164
20
176.93213680387328
30
0
11
317.75117797740165
21
176.93213680387328
31
0
0
LINE
5
134
100
AcDbEntity
8
0
100
AcDbLine
10
317.75117797740165
20
176.93213680387328
30
0
11
317.75117797740165
21
163.13213680387321
31
0
0
LINE
5
135
100
AcDbEntity
8
0
100
AcDbLine
10
317.75117797740165
20
163.13213680387321
30
0
11
303.95117797740164
21
163.13213680387327
31
0
0
LINE
5
136
100
AcDbEntity
8
0
100
AcDbLine
10
303.95117797740164
20
163.13213680387327
30
0
11
317.75117797740165
21
176.93213680387328
31
0
0
LINE
5
137
100
AcDbEntity
8
0
100
AcDbLine
10
303.95117797740164
20
163.13213680387327
30
0
11
303.95117797740164
21
176.93213680387328
31
0
0
LINE
5
138
100
AcDbEntity
8
0
100
AcDbLine
10
332.47330541486781
20
176.18777868568782
30
0
11
346.27330541486788
21
176.18777868568782
31
0
0
LINE
5
139
100
AcDbEntity
8
0
100
AcDbLine
10
332.47330541486781
20
162.38777868568781
30
0
11
332.47330541486781
21
176.18777868568782
31
0
0
LINE
5
140
100
AcDbEntity
8
0
100
AcDbLine
10
332.47330541486781
20
162.38777868568781
30
0
11
346.27330541486788
21
176.18777868568782
31
0
0
LINE
5
141
100
AcDbEntity
8
0
100
AcDbLine
10
346.27330541486788
20
162.38777868568775
30
0
11
332.47330541486781
21
162.38777868568781
31
0
0
LINE
5
142
100
AcDbEntity
8
0
100
AcDbLine
10
346.27330541486788
20
176.18777868568782
30
0
11
346.27330541486788
21
162.38777868568775
31
0
0
LINE
5
143
100
AcDbEntity
8
0
100
AcDbLine
10
346.27330541486788
20
162.38777868568775
30
0
11
332.47330541486781
21
176.18777868568782
31
0
0
LINE
5
144
100
AcDbEntity
8
0
100
AcDbLine
10
373.78396574933589
20
162.62745358579633
30
0
11
373.78396574933589
21
148.82745358579626
31
0
0
LINE
5
145
100
AcDbEntity
8
0
100
AcDbLine
10
359.98396574933588
20
162.62745358579633
30
0
11
373.78396574933589
21
162.62745358579633
31
0
0
LINE
5
146
100
AcDbEntity
8
0
100
AcDbLine
10
359.98396574933588
20
148.82745358579632
30
0
11
373.78396574933589
21
162.62745358579633
31
0
0
LINE
5
147
100
AcDbEntity
8
0
100
AcDbLine
10
373.78396574933589
20
148.82745358579626
30
0
11
359.98396574933588
21
162.62745358579633
31
0
0
LINE
5
148
100
AcDbEntity
8
0
100
AcDbLine
10
359.98396574933588
20
148.82745358579632
30
0
11
359.98396574933588
21
162.62745358579633
31
0
0
LINE
5
149
100
AcDbEntity
8
0
100
AcDbLine
10
373.78396574933589
20
148.82745358579626
30
0
11
359.98396574933588
21
148.82745358579632
31
0
0
LINE
5
150
100
AcDbEntity
8
0
100
AcDbLine
10
276.42482902381312
20
176.22827205193028
30
0
11
290.22482902381313
21
190.02827205193026
31
0
0
LINE
5
151
100
AcDbEntity
8
0
100
AcDbLine
10
290.22482902381313
20
190.02827205193026
30
0
11
290.22482902381313
21
176.22827205193019
31
0
0
LINE
5
152
100
AcDbEntity
8
0
100
AcDbLine
10
290.22482902381313
20
176.22827205193019
30
0
11
276.42482902381312
21
176.22827205193028
31
0
0
LINE
5
153
100
AcDbEntity
8
0
100
AcDbLine
10
276.42482902381312
20
176.22827205193028
30
0
11
276.42482902381312
21
190.02827205193026
31
0
0
LINE
5
154
100
AcDbEntity
8
0
100
AcDbLine
10
290.22482902381313
20
176.22827205193019
30
0
11
276.42482902381312
21
190.02827205193026
31
0
0
LINE
5
155
100
AcDbEntity
8
0
100
AcDbLine
10
276.42482902381312
20
190.02827205193026
30
0
11
290.22482902381313
21
190.02827205193026
31
0
0
LINE
5
156
100
AcDbEntity
8
0
100
AcDbLine
10
225.40074866206294
20
147.17136299206888
30
0
11
225.40074866206294
21
133.37136299206878
31
0
0
LINE
5
157
100
AcDbEntity
8
0
100
AcDbLine
10
211.60074866206293
20
147.17136299206888
30
0
11
225.40074866206294
21
147.17136299206888
31
0
0
LINE
5
158
100
AcDbEntity
8
0
100
AcDbLine
10
225.40074866206294
20
133.37136299206878
30
0
11
211.60074866206293
21
133.37136299206887
31
0
0
LINE
5
159
100
AcDbEntity
8
0
100
AcDbLine
10
225.40074866206294
20
133.37136299206878
30
0
11
211.60074866206293
21
147.17136299206888
31
0
0
LINE
5
160
100
AcDbEntity
8
0
100
AcDbLine
10
211.60074866206293
20
133.37136299206887
30
0
11
211.60074866206293
21
147.17136299206888
31
0
0
LINE
5
161
100
AcDbEntity
8
0
100
AcDbLine
10
211.60074866206293
20
133.37136299206887
30
0
11
225.40074866206294
21
147.17136299206888
31
0
0
LINE
5
162
100
AcDbEntity
8
0
100
AcDbLine
10
159.37289051940729
20
95.542277401394557
30
0
11
159.37289051940729
21
81.742277401394489
31
0
0
LINE
5
163
100
AcDbEntity
8
0
100
AcDbLine
10
159.37289051940729
20
81.742277401394489
30
0
11
145.57289051940728
21
95.542277401394557
31
0
0
LINE
5
164
100
AcDbEntity
8
0
100
AcDbLine
10
145.57289051940728
20
81.74227740139456
30
0
11
145.57289051940728
21
95.542277401394557
31
0
0
LINE
5
165
100
AcDbEntity
8
0
100
AcDbLine
10
159.37289051940729
20
81.742277401394489
30
0
11
145.57289051940728
21
81.74227740139456
31
0
0
LINE
5
166
100
AcDbEntity
8
0
100
AcDbLine
10
145.57289051940728
20
95.542277401394557
30
0
11
159.37289051940729
21
95.542277401394557
31
0
0
LINE
5
167
100
AcDbEntity
8
0
100
AcDbLine
10
145.57289051940728
20
81.74227740139456
30
0
11
159.37289051940729
21
95.542277401394557
31
0
0
LINE
5
168
100
AcDbEntity
8
0
100
AcDbLine
10
166.64096570755186
20
63.945467568803537
30
0
11
166.64096570755186
21
77.745467568803534
31
0
0
LINE
5
169
100
AcDbEntity
8
0
100
AcDbLine
10
166.64096570755186
20
77.745467568803534
30
0
11
180.44096570755184
21
77.745467568803534
31
0
0
LINE
5
170
100
AcDbEntity
8
0
100
AcDbLine
10
180.44096570755184
20
63.945467568803465
30
0
11
166.64096570755186
21
77.745467568803534
31
0
0
LINE
5
171
100
AcDbEntity
8
0
100
AcDbLine
10
180.44096570755184
20
77.745467568803534
30
0
11
180.44096570755184
21
63.945467568803465
31
0
0
LINE
5
172
100
AcDbEntity
8
0
100
AcDbLine
10
166.64096570755186
20
63.945467568803537
30
0
11
180.44096570755184
21
77.745467568803534
31
0
0
LINE
5
173
100
AcDbEntity
8
0
100
AcDbLine
10
180.44096570755184
20
63.945467568803465
30
0
11
166.64096570755186
21
63.945467568803537
31
0
0
LWPOLYLINE
5
174
100
AcDbEntity
8
0
100
AcDbPolyline
90
6
70
1
43
0.0
10
270.16053161657419
20
63.9454675688036
10
256.36053161657412
20
63.945467568803515
10
270.16053161657419
20
77.745467568803605
10
256.36053161657418
20
77.745467568803576
10
270.16053161657419
20
63.9454675688036
10
270.16053161657419
20
77.745467568803605
0
LWPOLYLINE
5
175
100
AcDbEntity
8
0
100
AcDbPolyline
90
6
70
1
43
0.0
10
277.4286068047187
20
95.542277401394642
10
291.22860680471865
20
95.542277401394657
10
291.22860680471871
20
81.742277401394645
10
277.42860680471864
20
81.74227740139456
10
277.4286068047187
20
95.542277401394642
10
291.22860680471871
20
81.742277401394645
0
LINE
5
176
100
AcDbEntity
8
0
100
AcDbLine
10
301.58034037106569
20
204.03093464564679
30
0
11
315.3803403710657
21
204.03093464564679
31
0
0
LINE
5
177
100
AcDbEntity
8
0
100
AcDbLine
10
315.3803403710657
20
190.23093464564676
30
0
11
301.58034037106569
21
190.23093464564681
31
0
0
LINE
5
178
100
AcDbEntity
8
0
100
AcDbLine
10
301.58034037106569
20
190.23093464564681
30
0
11
315.3803403710657
21
204.03093464564679
31
0
0
LINE
5
179
100
AcDbEntity
8
0
100
AcDbLine
10
315.3803403710657
20
190.23093464564676
30
0
11
301.58034037106569
21
204.03093464564679
31
0
0
LINE
5
180
100
AcDbEntity
8
0
100
AcDbLine
10
301.58034037106569
20
190.23093464564681
30
0
11
301.58034037106569
21
204.03093464564679
31
0
0
LINE
5
181
100
AcDbEntity
8
0
100
AcDbLine
10
315.3803403710657
20
204.03093464564679
30
0
11
315.3803403710657
21
190.23093464564676
31
0
0
LINE
5
182
100
AcDbEntity
8
0
100
AcDbLine
10
343.89351785914306
20
203.38887491708294
30
0
11
343.89351785914306
21
189.58887491708285
31
0
0
LINE
5
183
100
AcDbEntity
8
0
100
AcDbLine
10
330.09351785914305
20
203.38887491708294
30
0
11
343.89351785914306
21
203.38887491708294
31
0
0
LINE
5
184
100
AcDbEntity
8
0
100
AcDbLine
10
330.09351785914305
20
189.58887491708296
30
0
11
330.09351785914305
21
203.38887491708294
31
0
0
LINE
5
185
100
AcDbEntity
8
0
100
AcDbLine
10
343.89351785914306
20
189.58887491708285
30
0
11
330.09351785914305
21
189.58887491708296
31
0
0
LINE
5
186
100
AcDbEntity
8
0
100
AcDbLine
10
343.89351785914306
20
189.58887491708285
30
0
11
330.09351785914305
21
203.38887491708294
31
0
0
LINE
5
187
100
AcDbEntity
8
0
100
AcDbLine
10
330.09351785914305
20
189.58887491708296
30
0
11
343.89351785914306
21
203.38887491708294
31
0
0
LINE
5
188
100
AcDbEntity
8
0
100
AcDbLine
10
357.60417819361118
20
176.02854981719148
30
0
11
357.60417819361118
21
189.82854981719146
31
0
0
LINE
5
189
100
AcDbEntity
8
0
100
AcDbLine
10
371.40417819361119
20
176.02854981719136
30
0
11
357.60417819361118
21
189.82854981719146
31
0
0
LINE
5
190
100
AcDbEntity
8
0
100
AcDbLine
10
371.40417819361119
20
176.02854981719136
30
0
11
357.60417819361118
21
176.02854981719148
31
0
0
LINE
5
191
100
AcDbEntity
8
0
100
AcDbLine
10
371.40417819361119
20
189.82854981719146
30
0
11
371.40417819361119
21
176.02854981719136
31
0
0
LINE
5
192
100
AcDbEntity
8
0
100
AcDbLine
10
357.60417819361118
20
189.82854981719146
30
0
11
371.40417819361119
21
189.82854981719146
31
0
0
LINE
5
193
100
AcDbEntity
8
0
100
AcDbLine
10
357.60417819361118
20
176.02854981719148
30
0
11
371.40417819361119
21
189.82854981719146
31
0
0
LWPOLYLINE
5
194
100
AcDbEntity
8
0
100
AcDbPolyline
90
6
70
1
43
0.0
10
267.6489836207279
20
108.7386029827741
10
253.84898362072789
20
94.9386029827741
10
267.6489836207279
20
94.938602982774029
10
253.84898362072789
20
108.7386029827741
10
267.6489836207279
20
108.7386029827741
10
267.6489836207279
20
94.938602982774029
0
LWPOLYLINE
5
195
100
AcDbEntity
8
0
100
AcDbPolyline
90
6
70
1
43
0.0
10
312.7473541506173
20
112.68419914763106
10
298.94735415061734
20
112.68419914763106
10
298.94735415061734
20
98.884199147631051
10
312.7473541506173
20
98.88419914763098
10
312.7473541506173
20
112.68419914763106
10
298.94735415061734
20
98.884199147631051
0
LINE
5
196
100
AcDbEntity
8
0
100
AcDbLine
10
288.71705880887242
20
126.53541281536518
30
0
11
288.71705880887242
21
112.73541281536509
31
0
0
LINE
5
197
100
AcDbEntity
8
0
100
AcDbLine
10
288.71705880887242
20
112.73541281536509
30
0
11
274.91705880887241
21
112.73541281536517
31
0
0
LINE
5
198
100
AcDbEntity
8
0
100
AcDbLine
10
274.91705880887241
20
112.73541281536517
30
0
11
274.91705880887241
21
126.53541281536518
31
0
0
LINE
5
199
100
AcDbEntity
8
0
100
AcDbLine
10
288.71705880887242
20
112.73541281536509
30
0
11
274.91705880887241
21
126.53541281536518
31
0
0
LINE
5
200
100
AcDbEntity
8
0
100
AcDbLine
10
274.91705880887241
20
126.53541281536518
30
0
11
288.71705880887242
21
126.53541281536518
31
0
0
LINE
5
201
100
AcDbEntity
8
0
100
AcDbLine
10
274.91705880887241
20
112.73541281536517
30
0
11
288.71705880887242
21
126.53541281536518
31
0
0
ENDSEC
0
SECTION
2
OBJECTS
0
DICTIONARY
5
C
100
AcDbDictionary
3
ACAD_GROUP
350
D
3
ACAD_MLINESTYLE
350
17
0
DICTIONARY
5
D
100
AcDbDictionary
0
DICTIONARY
5
1A
330
C
100
AcDbDictionary
0
DICTIONARY
5
17
100
AcDbDictionary
0
ENDSEC
0
EOF
