0
SECTION
2
HEADER
9
$INSUNITS
70
4
9
$ACADVER
1
AC1014
9
$HANDSEED
5
FFFF
0
ENDSEC
0
SECTION
2
TABLES
0
TABLE
2
VPORT
5
8
100
AcDbSymbolTable
0
ENDTAB
0
TABLE
2
LTYPE
5
5
100
AcDbSymbolTable
0
LTYPE
5
14
100
AcDbSymbolTableRecord
100
AcDbLinetypeTableRecord
2
BYBLOCK
70
0
0
LTYPE
5
15
100
AcDbSymbolTableRecord
100
AcDbLinetypeTableRecord
2
BYLAYER
70
0
0
ENDTAB
0
TABLE
2
LAYER
5
2
100
AcDbSymbolTable
70
2
0
LAYER
5
50
100
AcDbSymbolTableRecord
100
AcDbLayerTableRecord
2
0
70
0
6
CONTINUOUS
0
ENDTAB
0
TABLE
2
STYLE
5
3
100
AcDbSymbolTable
70
1
0
STYLE
5
11
100
AcDbSymbolTableRecord
100
AcDbTextStyleTableRecord
2
STANDARD
70
0
0
ENDTAB
0
TABLE
2
VIEW
5
6
100
AcDbSymbolTable
70
0
0
ENDTAB
0
TABLE
2
UCS
5
7
100
AcDbSymbolTable
70
0
0
ENDTAB
0
TABLE
2
APPID
5
9
100
AcDbSymbolTable
70
2
0
APPID
5
12
100
AcDbSymbolTableRecord
100
AcDbRegAppTableRecord
2
ACAD
70
0
0
ENDTAB
0
TABLE
2
DIMSTYLE
5
A
100
AcDbSymbolTable
70
1
0
ENDTAB
0
TABLE
2
BLOCK_RECORD
5
1
100
AcDbSymbolTable
70
1
0
BLOCK_RECORD
5
1F
100
AcDbSymbolTableRecord
100
AcDbBlockTableRecord
2
*MODEL_SPACE
0
BLOCK_RECORD
5
1B
100
AcDbSymbolTableRecord
100
AcDbBlockTableRecord
2
*PAPER_SPACE
0
ENDTAB
0
ENDSEC
0
SECTION
2
BLOCKS
0
BLOCK
5
20
100
AcDbEntity
100
AcDbBlockBegin
2
*MODEL_SPACE
0
ENDBLK
5
21
100
AcDbEntity
100
AcDbBlockEnd
0
BLOCK
5
1C
100
AcDbEntity
100
AcDbBlockBegin
2
*PAPER_SPACE
0
ENDBLK
5
1D
100
AcDbEntity
100
AcDbBlockEnd
0
ENDSEC
0
SECTION
2
ENTITIES
0
LWPOLYLINE
5
100
100
AcDbEntity
8
0
100
AcDbPolyline
90
56
70
1
43
0.0
10
361.60074866206293
20
219.78164327206883
42
-0.41421356237309503
10
386.60074866206293
20
194.78164327206883
10
386.60074866206276
20
71.581643272068902
42
-0.4142135623730942
10
361.60074866206298
20
46.581643272069101
10
75.200748662063035
20
46.581643272069101
42
-0.41421356237309309
10
50.200748662063077
20
71.581643272068902
10
50.200748662063077
20
194.78164327206883
42
-0.41421356237309503
10
75.200748662063077
20
219.78164327206883
10
204.96526609687203
20
219.78164327206883
42
-0.41421356237309503
10
209.96526609687203
20
214.78164327206883
10
209.96526609687203
20
212.74285758534535
10
195.67687753222009
20
212.7428575853454
42
0.25631618271676648
10
192.30311116252471
20
210.89174112865632
10
179.35714965077102
20
190.5664658443431
42
-0.25631618271677192
10
172.60961691138033
20
186.86423293096496
10
61.739534348786584
20
186.86423293096496
42
0.41421356237309193
10
56.739534348786563
20
181.86423293096496
10
56.739534348786563
20
139.04375152738655
42
0.41421356237309764
10
58.739534348786542
20
137.04375152738658
10
163
20
137.04375152738658
42
-0.41421356237309803
10
170
20
130.04375152738658
10
170
20
113.00000157952309
42
-0.41421356237309803
10
163
20
106.00000157952309
10
141.00000201165676
20
106.00000157952309
42
0.41421356237310025
10
135.00000201165676
20
100.00000157952309
10
135.00000201165673
20
82.970459851566318
42
0.20339777430643619
10
137.13633894694451
20
77.936099753902099
10
160.85209725490205
20
55.024457460460994
42
0.19443464642023661
10
164.32614230112509
20
53.620428958792573
10
183.50000280141828
20
53.620428958792594
42
0.41421356237309442
10
188.0000028014183
20
58.120428958792616
10
188.0000028014183
20
106.50000166893005
42
-0.41421356237309415
10
193.5000028014183
20
112.00000166893005
10
239.5800263458998
20
112.00000166893005
42
-0.41421356237309503
10
245.0800263458998
20
106.50000166893008
10
245.0800263458998
20
55.12042895879258
42
0.41421356237310197
10
246.5800263458998
20
53.620428958792594
10
277.22252080917769
20
53.620428958792559
42
0.19891236737966139
10
281.46516149629696
20
55.377788271673282
10
316.78271540940545
20
90.695342184781737
42
0.19891236737965731
10
319.12586115991309
20
96.35219643427412
10
319.12586115991309
20
126.00000204145908
42
-0.41421356237309503
10
330.12586115991314
20
137.00000204145911
10
376.06196297533938
20
137.00000204145897
42
0.41421356237308021
10
379.56196297533944
20
140.50000204145897
10
379.5619629753395
20
194.78164327206883
10
379.5619629753395
20
204.00000308454037
42
0.41421356237308815
10
376.5619629753395
20
207.0000030845404
10
374.76573643647549
20
207.00000308454037
10
246.16710665983908
20
207.00000308453781
42
-0.27043647397542381
10
244.42585363941035
20
208.01611390437165
10
242.32917298426602
20
211.72674676551154
42
0.27043647397539938
10
240.58791996383735
20
212.74285758534535
10
224.75822075068348
20
212.74285758534535
10
224.75822075068348
20
214.78164327206883
42
-0.41421356237309293
10
229.75822075068348
20
219.78164327206886
0
CIRCLE
5
101
100
AcDbEntity
8
0
100
AcDbCircle
10
350.80149604262607
20
214.78164327206889
30
0
40
1.5000000000000002
210
0
220
0
230
1
0
CIRCLE
5
102
100
AcDbEntity
8
0
100
AcDbCircle
10
381.60074866206276
20
185.00000000000023
30
0
40
1.5000000000000002
210
0
220
0
230
1
0
CIRCLE
5
103
100
AcDbEntity
8
0
100
AcDbCircle
10
381.60074866206287
20
133.1816432720691
30
0
40
1.5000000000000002
210
0
220
0
230
1
0
CIRCLE
5
104
100
AcDbEntity
8
0
100
AcDbCircle
10
266.19851632180757
20
51.581643272069151
30
0
40
1.5000000000000002
210
0
220
0
230
1
0
CIRCLE
5
105
100
AcDbEntity
8
0
100
AcDbCircle
10
350.80149604262613
20
51.581643272069257
30
0
40
1.5000000000000002
210
0
220
0
230
1
0
CIRCLE
5
106
100
AcDbEntity
8
0
100
AcDbCircle
10
381.60074866206281
20
81.363286544137992
30
0
40
1.5000000000000002
210
0
220
0
230
1
0
CIRCLE
5
107
100
AcDbEntity
8
0
100
AcDbCircle
10
170.60298100231842
20
51.581643272069101
30
0
40
1.5000000000000002
210
0
220
0
230
1
0
CIRCLE
5
108
100
AcDbEntity
8
0
100
AcDbCircle
10
86.000001281499863
20
51.581643272069101
30
0
40
1.5000000000000002
210
0
220
0
230
1
0
CIRCLE
5
109
100
AcDbEntity
8
0
100
AcDbCircle
10
55.200748662063077
20
81.363286544137793
30
0
40
1.5000000000000002
210
0
220
0
230
1
0
CIRCLE
5
110
100
AcDbEntity
8
0
100
AcDbCircle
10
55.200748662063006
20
133.1816432720689
30
0
40
1.5000000000000002
210
0
220
0
230
1
0
CIRCLE
5
111
100
AcDbEntity
8
0
100
AcDbCircle
10
55.200748662063006
20
185
30
0
40
1.5000000000000002
210
0
220
0
230
1
0
CIRCLE
5
112
100
AcDbEntity
8
0
100
AcDbCircle
10
86.000001281499749
20
214.78164327206869
30
0
40
1.5000000000000002
210
0
220
0
230
1
0
CIRCLE
5
113
100
AcDbEntity
8
0
100
AcDbCircle
10
170.6029810023183
20
214.78164327206883
30
0
40
1.5000000000000002
210
0
220
0
230
1
0
CIRCLE
5
114
100
AcDbEntity
8
0
100
AcDbCircle
10
266.19851632180746
20
214.78164327206889
30
0
40
1.5000000000000002
210
0
220
0
230
1
0
ENDSEC
0
SECTION
2
OBJECTS
0
DICTIONARY
5
C
100
AcDbDictionary
3
ACAD_GROUP
350
D
3
ACAD_MLINESTYLE
350
17
0
DICTIONARY
5
D
100
AcDbDictionary
0
DICTIONARY
5
1A
330
C
100
AcDbDictionary
0
DICTIONARY
5
17
100
AcDbDictionary
0
ENDSEC
0
EOF
