0
SECTION
2
HEADER
9
$INSUNITS
70
4
9
$ACADVER
1
AC1014
9
$HANDSEED
5
FFFF
0
ENDSEC
0
SECTION
2
TABLES
0
TABLE
2
VPORT
5
8
100
AcDbSymbolTable
0
ENDTAB
0
TABLE
2
LTYPE
5
5
100
AcDbSymbolTable
0
LTYPE
5
14
100
AcDbSymbolTableRecord
100
AcDbLinetypeTableRecord
2
BYBLOCK
70
0
0
LTYPE
5
15
100
AcDbSymbolTableRecord
100
AcDbLinetypeTableRecord
2
BYLAYER
70
0
0
ENDTAB
0
TABLE
2
LAYER
5
2
100
AcDbSymbolTable
70
2
0
LAYER
5
50
100
AcDbSymbolTableRecord
100
AcDbLayerTableRecord
2
0
70
0
6
CONTINUOUS
0
ENDTAB
0
TABLE
2
STYLE
5
3
100
AcDbSymbolTable
70
1
0
STYLE
5
11
100
AcDbSymbolTableRecord
100
AcDbTextStyleTableRecord
2
STANDARD
70
0
0
ENDTAB
0
TABLE
2
VIEW
5
6
100
AcDbSymbolTable
70
0
0
ENDTAB
0
TABLE
2
UCS
5
7
100
AcDbSymbolTable
70
0
0
ENDTAB
0
TABLE
2
APPID
5
9
100
AcDbSymbolTable
70
2
0
APPID
5
12
100
AcDbSymbolTableRecord
100
AcDbRegAppTableRecord
2
ACAD
70
0
0
ENDTAB
0
TABLE
2
DIMSTYLE
5
A
100
AcDbSymbolTable
70
1
0
ENDTAB
0
TABLE
2
BLOCK_RECORD
5
1
100
AcDbSymbolTable
70
1
0
BLOCK_RECORD
5
1F
100
AcDbSymbolTableRecord
100
AcDbBlockTableRecord
2
*MODEL_SPACE
0
BLOCK_RECORD
5
1B
100
AcDbSymbolTableRecord
100
AcDbBlockTableRecord
2
*PAPER_SPACE
0
ENDTAB
0
ENDSEC
0
SECTION
2
BLOCKS
0
BLOCK
5
20
100
AcDbEntity
100
AcDbBlockBegin
2
*MODEL_SPACE
0
ENDBLK
5
21
100
AcDbEntity
100
AcDbBlockEnd
0
BLOCK
5
1C
100
AcDbEntity
100
AcDbBlockBegin
2
*PAPER_SPACE
0
ENDBLK
5
1D
100
AcDbEntity
100
AcDbBlockEnd
0
ENDSEC
0
SECTION
2
ENTITIES
0
LWPOLYLINE
5
100
100
AcDbEntity
8
0
100
AcDbPolyline
90
8
70
1
43
0.0
10
361.60074866206293
20
219.78164327206883
42
-0.41421356237309503
10
386.60074866206293
20
194.78164327206883
10
386.60074866206276
20
71.581643272068902
42
-0.4142135623730942
10
361.60074866206298
20
46.581643272069101
10
75.200748662063035
20
46.581643272069101
42
-0.41421356237309309
10
50.200748662063077
20
71.581643272068902
10
50.200748662063077
20
194.78164327206883
42
-0.41421356237309503
10
75.200748662063077
20
219.78164327206883
0
LWPOLYLINE
5
101
100
AcDbEntity
8
0
100
AcDbPolyline
90
4
70
1
43
0.0
10
62.906420463678856
20
148.71634247468498
10
76.906420463678856
20
148.71634247468501
10
76.906420463678856
20
162.71634247468498
10
62.906420463678856
20
162.71634247468498
0
LWPOLYLINE
5
102
100
AcDbEntity
8
0
100
AcDbPolyline
90
4
70
1
43
0.0
10
90.639303020369084
20
176.49888979679875
10
90.639303020369084
20
162.49888979679881
10
104.63930302036907
20
162.49888979679872
10
104.63930302036908
20
176.49888979679875
0
LWPOLYLINE
5
103
100
AcDbEntity
8
0
100
AcDbPolyline
90
4
70
1
43
0.0
10
119.16143045783522
20
177.02102569276207
10
119.16143045783522
20
163.02102569276207
10
133.16143045783522
20
163.02102569276201
10
133.16143045783525
20
177.02102569276207
0
LWPOLYLINE
5
104
100
AcDbEntity
8
0
100
AcDbPolyline
90
4
70
1
43
0.0
10
144.07462773874408
20
149.01093449210029
10
158.07462773874408
20
149.01093449210038
10
158.07462773874408
20
163.01093449210026
10
144.07462773874408
20
163.01093449210029
0
LWPOLYLINE
5
105
100
AcDbEntity
8
0
100
AcDbPolyline
90
4
70
1
43
0.0
10
292.72686958538168
20
162.78871226987815
10
278.72686958538173
20
162.78871226987815
10
278.72686958538168
20
148.78871226987812
10
292.72686958538168
20
148.78871226987806
0
LWPOLYLINE
5
106
100
AcDbEntity
8
0
100
AcDbPolyline
90
4
70
1
43
0.0
10
317.86228908851274
20
177.02102569276212
10
303.86228908851274
20
177.02102569276212
10
303.86228908851274
20
163.02102569276218
10
317.86228908851274
20
163.02102569276212
0
LWPOLYLINE
5
107
100
AcDbEntity
8
0
100
AcDbPolyline
90
4
70
1
43
0.0
10
346.38441652597896
20
176.27666757457666
10
332.38441652597896
20
176.27666757457666
10
332.38441652597896
20
162.27666757457672
10
346.38441652597896
20
162.27666757457666
0
LWPOLYLINE
5
108
100
AcDbEntity
8
0
100
AcDbPolyline
90
4
70
1
43
0.0
10
373.89507686044692
20
148.71634247468518
10
373.89507686044692
20
162.71634247468523
10
359.89507686044698
20
162.71634247468523
10
359.89507686044698
20
148.71634247468523
0
LWPOLYLINE
5
109
100
AcDbEntity
8
0
100
AcDbPolyline
90
4
70
1
43
0.0
10
290.33594013492421
20
176.1171609408191
10
290.33594013492421
20
190.11716094081913
10
276.33594013492421
20
190.11716094081913
10
276.33594013492421
20
176.11716094081916
0
LWPOLYLINE
5
110
100
AcDbEntity
8
0
100
AcDbPolyline
90
4
70
1
43
0.0
10
225.51185977317402
20
133.26025188095767
10
225.51185977317402
20
147.26025188095775
10
211.51185977317402
20
147.26025188095775
10
211.51185977317402
20
133.26025188095775
0
LWPOLYLINE
5
111
100
AcDbEntity
8
0
100
AcDbPolyline
90
4
70
1
43
0.0
10
159.48400163051841
20
81.631166290283375
10
159.48400163051841
20
95.631166290283446
10
145.48400163051841
20
95.631166290283446
10
145.48400163051841
20
81.631166290283446
0
LWPOLYLINE
5
112
100
AcDbEntity
8
0
100
AcDbPolyline
90
4
70
1
43
0.0
10
166.55207681866295
20
77.834356457692422
10
166.55207681866295
20
63.834356457692422
10
180.55207681866295
20
63.834356457692351
10
180.55207681866295
20
77.834356457692422
0
LWPOLYLINE
5
113
100
AcDbEntity
8
0
100
AcDbPolyline
90
4
70
1
43
0.0
10
270.16974542949674
20
63.745470600744945
10
256.36053161657412
20
63.945467568803515
10
256.16053331752391
20
77.752368770671225
10
270.16053161657419
20
77.745467568803605
0
LWPOLYLINE
5
114
100
AcDbEntity
8
0
100
AcDbPolyline
90
4
70
1
43
0.0
10
277.22860680471871
20
95.542277401394642
10
291.22860680471865
20
95.542277401394657
10
291.22860680471871
20
81.542277401394728
10
277.22860680471865
20
81.542277401394628
0
LWPOLYLINE
5
115
100
AcDbEntity
8
0
100
AcDbPolyline
90
4
70
1
43
0.0
10
315.49145148217679
20
204.1198235345357
10
301.49145148217679
20
204.1198235345357
10
301.49145148217679
20
190.11982353453573
10
315.4914514821769
20
190.11982353453564
0
LWPOLYLINE
5
116
100
AcDbEntity
8
0
100
AcDbPolyline
90
4
70
1
43
0.0
10
344.00462897025415
20
189.47776380597179
10
344.00462897025415
20
203.47776380597182
10
330.00462897025415
20
203.47776380597182
10
330.00462897025415
20
189.4777638059719
0
LWPOLYLINE
5
117
100
AcDbEntity
8
0
100
AcDbPolyline
90
4
70
1
43
0.0
10
357.51528930472233
20
189.91743870608033
10
357.51528930472233
20
175.91743870608039
10
371.51528930472233
20
175.91743870608028
10
371.51528930472233
20
189.91743870608033
0
LWPOLYLINE
5
118
100
AcDbEntity
8
0
100
AcDbPolyline
90
4
70
1
43
0.0
10
253.76009473183899
20
94.827491871662986
10
267.76009473183899
20
94.827491871662914
10
267.76009473183899
20
108.82749187166299
10
253.76009473183899
20
108.82749187166299
0
LWPOLYLINE
5
119
100
AcDbEntity
8
0
100
AcDbPolyline
90
4
70
1
43
0.0
10
312.85846526172838
20
112.77308803651994
10
298.85846526172844
20
112.77308803651994
10
298.85846526172844
20
98.773088036519937
10
312.85846526172838
20
98.773088036519866
0
LWPOLYLINE
5
120
100
AcDbEntity
8
0
100
AcDbPolyline
90
4
70
1
43
0.0
10
288.82816991998357
20
112.62430170425398
10
288.82816991998357
20
126.62430170425407
10
274.82816991998357
20
126.62430170425407
10
274.82816991998357
20
112.62430170425405
0
CIRCLE
5
121
100
AcDbEntity
8
0
100
AcDbCircle
10
266.19851632180746
20
214.78164327206889
30
0
40
1.5000000000000002
210
0
220
0
230
1
0
CIRCLE
5
122
100
AcDbEntity
8
0
100
AcDbCircle
10
170.6029810023183
20
214.78164327206883
30
0
40
1.5000000000000002
210
0
220
0
230
1
0
CIRCLE
5
123
100
AcDbEntity
8
0
100
AcDbCircle
10
86.000001281499749
20
214.78164327206869
30
0
40
1.5000000000000002
210
0
220
0
230
1
0
CIRCLE
5
124
100
AcDbEntity
8
0
100
AcDbCircle
10
55.200748662063006
20
185
30
0
40
1.5000000000000002
210
0
220
0
230
1
0
CIRCLE
5
125
100
AcDbEntity
8
0
100
AcDbCircle
10
55.200748662063006
20
133.1816432720689
30
0
40
1.5000000000000002
210
0
220
0
230
1
0
CIRCLE
5
126
100
AcDbEntity
8
0
100
AcDbCircle
10
55.200748662063077
20
81.363286544137793
30
0
40
1.5000000000000002
210
0
220
0
230
1
0
CIRCLE
5
127
100
AcDbEntity
8
0
100
AcDbCircle
10
86.000001281499863
20
51.581643272069101
30
0
40
1.5000000000000002
210
0
220
0
230
1
0
CIRCLE
5
128
100
AcDbEntity
8
0
100
AcDbCircle
10
170.60298100231842
20
51.581643272069101
30
0
40
1.5000000000000002
210
0
220
0
230
1
0
CIRCLE
5
129
100
AcDbEntity
8
0
100
AcDbCircle
10
266.19851632180757
20
51.581643272069151
30
0
40
1.5000000000000002
210
0
220
0
230
1
0
CIRCLE
5
130
100
AcDbEntity
8
0
100
AcDbCircle
10
350.80149604262613
20
51.581643272069257
30
0
40
1.5000000000000002
210
0
220
0
230
1
0
CIRCLE
5
131
100
AcDbEntity
8
0
100
AcDbCircle
10
381.60074866206281
20
81.363286544137992
30
0
40
1.5000000000000002
210
0
220
0
230
1
0
CIRCLE
5
132
100
AcDbEntity
8
0
100
AcDbCircle
10
381.60074866206287
20
133.1816432720691
30
0
40
1.5000000000000002
210
0
220
0
230
1
0
CIRCLE
5
133
100
AcDbEntity
8
0
100
AcDbCircle
10
381.60074866206276
20
185.00000000000023
30
0
40
1.5000000000000002
210
0
220
0
230
1
0
CIRCLE
5
134
100
AcDbEntity
8
0
100
AcDbCircle
10
350.80149604262607
20
214.78164327206889
30
0
40
1.5000000000000002
210
0
220
0
230
1
0
ENDSEC
0
SECTION
2
OBJECTS
0
DICTIONARY
5
C
100
AcDbDictionary
3
ACAD_GROUP
350
D
3
ACAD_MLINESTYLE
350
17
0
DICTIONARY
5
D
100
AcDbDictionary
0
DICTIONARY
5
1A
330
C
100
AcDbDictionary
0
DICTIONARY
5
17
100
AcDbDictionary
0
ENDSEC
0
EOF
