0
SECTION
2
HEADER
9
$INSUNITS
70
4
9
$ACADVER
1
AC1014
9
$HANDSEED
5
FFFF
0
ENDSEC
0
SECTION
2
TABLES
0
TABLE
2
VPORT
5
8
100
AcDbSymbolTable
0
ENDTAB
0
TABLE
2
LTYPE
5
5
100
AcDbSymbolTable
0
LTYPE
5
14
100
AcDbSymbolTableRecord
100
AcDbLinetypeTableRecord
2
BYBLOCK
70
0
0
LTYPE
5
15
100
AcDbSymbolTableRecord
100
AcDbLinetypeTableRecord
2
BYLAYER
70
0
0
ENDTAB
0
TABLE
2
LAYER
5
2
100
AcDbSymbolTable
70
2
0
LAYER
5
50
100
AcDbSymbolTableRecord
100
AcDbLayerTableRecord
2
0
70
0
6
CONTINUOUS
0
ENDTAB
0
TABLE
2
STYLE
5
3
100
AcDbSymbolTable
70
1
0
STYLE
5
11
100
AcDbSymbolTableRecord
100
AcDbTextStyleTableRecord
2
STANDARD
70
0
0
ENDTAB
0
TABLE
2
VIEW
5
6
100
AcDbSymbolTable
70
0
0
ENDTAB
0
TABLE
2
UCS
5
7
100
AcDbSymbolTable
70
0
0
ENDTAB
0
TABLE
2
APPID
5
9
100
AcDbSymbolTable
70
2
0
APPID
5
12
100
AcDbSymbolTableRecord
100
AcDbRegAppTableRecord
2
ACAD
70
0
0
ENDTAB
0
TABLE
2
DIMSTYLE
5
A
100
AcDbSymbolTable
70
1
0
ENDTAB
0
TABLE
2
BLOCK_RECORD
5
1
100
AcDbSymbolTable
70
1
0
BLOCK_RECORD
5
1F
100
AcDbSymbolTableRecord
100
AcDbBlockTableRecord
2
*MODEL_SPACE
0
BLOCK_RECORD
5
1B
100
AcDbSymbolTableRecord
100
AcDbBlockTableRecord
2
*PAPER_SPACE
0
ENDTAB
0
ENDSEC
0
SECTION
2
BLOCKS
0
BLOCK
5
20
100
AcDbEntity
100
AcDbBlockBegin
2
*MODEL_SPACE
0
ENDBLK
5
21
100
AcDbEntity
100
AcDbBlockEnd
0
BLOCK
5
1C
100
AcDbEntity
100
AcDbBlockBegin
2
*PAPER_SPACE
0
ENDBLK
5
1D
100
AcDbEntity
100
AcDbBlockEnd
0
ENDSEC
0
SECTION
2
ENTITIES
0
LWPOLYLINE
5
100
100
AcDbEntity
8
0
100
AcDbPolyline
90
8
70
1
43
0.0
10
361.60074866206293
20
219.78164327206883
42
-0.41421356237309503
10
386.60074866206293
20
194.78164327206883
10
386.60074866206276
20
71.581643272068902
42
-0.4142135623730942
10
361.60074866206298
20
46.581643272069101
10
75.200748662063035
20
46.581643272069101
42
-0.41421356237309309
10
50.200748662063077
20
71.581643272068902
10
50.200748662063077
20
194.78164327206883
42
-0.41421356237309503
10
75.200748662063077
20
219.78164327206883
0
LWPOLYLINE
5
101
100
AcDbEntity
8
0
100
AcDbPolyline
90
4
70
1
43
0.0
10
63.02070617796457
20
148.83062818897068
10
76.820706177964567
20
148.83062818897071
10
76.820706177964567
20
162.63062818897069
10
63.02070617796457
20
162.63062818897069
0
LWPOLYLINE
5
102
100
AcDbEntity
8
0
100
AcDbPolyline
90
4
70
1
43
0.0
10
90.725017306083359
20
176.38460408251305
10
90.725017306083359
20
162.58460408251307
10
104.52501730608334
20
162.58460408251298
10
104.52501730608336
20
176.38460408251305
0
LWPOLYLINE
5
103
100
AcDbEntity
8
0
100
AcDbPolyline
90
4
70
1
43
0.0
10
119.24714474354951
20
176.93531140704778
10
119.24714474354951
20
163.13531140704779
10
133.0471447435495
20
163.13531140704771
10
133.04714474354952
20
176.93531140704778
0
LWPOLYLINE
5
104
100
AcDbEntity
8
0
100
AcDbPolyline
90
4
70
1
43
0.0
10
144.18891345302978
20
149.09664877781458
10
157.9889134530298
20
149.09664877781466
10
157.9889134530298
20
162.89664877781456
10
144.18891345302978
20
162.89664877781459
0
LWPOLYLINE
5
105
100
AcDbEntity
8
0
100
AcDbPolyline
90
4
70
1
43
0.0
10
292.61258387109598
20
162.70299798416386
10
278.81258387109602
20
162.70299798416386
10
278.81258387109597
20
148.90299798416385
10
292.61258387109598
20
148.90299798416379
0
LWPOLYLINE
5
106
100
AcDbEntity
8
0
100
AcDbPolyline
90
4
70
1
43
0.0
10
317.74800337422704
20
176.93531140704789
10
303.94800337422703
20
176.93531140704789
10
303.94800337422703
20
163.13531140704788
10
317.74800337422704
20
163.13531140704782
0
LWPOLYLINE
5
107
100
AcDbEntity
8
0
100
AcDbPolyline
90
4
70
1
43
0.0
10
346.27013081169332
20
176.19095328886243
10
332.47013081169325
20
176.19095328886243
10
332.47013081169325
20
162.39095328886242
10
346.27013081169332
20
162.39095328886236
0
LWPOLYLINE
5
108
100
AcDbEntity
8
0
100
AcDbPolyline
90
4
70
1
43
0.0
10
373.78079114616128
20
148.83062818897091
10
373.78079114616128
20
162.63062818897095
10
359.98079114616127
20
162.63062818897095
10
359.98079114616127
20
148.83062818897093
0
LWPOLYLINE
5
109
100
AcDbEntity
8
0
100
AcDbPolyline
90
4
70
1
43
0.0
10
290.22165442063852
20
176.2314466551048
10
290.22165442063852
20
190.03144665510487
10
276.4216544206385
20
190.03144665510487
10
276.4216544206385
20
176.23144665510489
0
LWPOLYLINE
5
110
100
AcDbEntity
8
0
100
AcDbPolyline
90
4
70
1
43
0.0
10
225.39757405888832
20
133.3745375952434
10
225.39757405888832
20
147.17453759524346
10
211.59757405888831
20
147.17453759524346
10
211.59757405888831
20
133.37453759524345
0
LWPOLYLINE
5
111
100
AcDbEntity
8
0
100
AcDbPolyline
90
4
70
1
43
0.0
10
159.36971591623268
20
81.745452004569074
10
159.36971591623268
20
95.545452004569157
10
145.5697159162327
20
95.545452004569157
10
145.5697159162327
20
81.745452004569159
0
LWPOLYLINE
5
112
100
AcDbEntity
8
0
100
AcDbPolyline
90
4
70
1
43
0.0
10
166.63779110437724
20
77.748642171978133
10
166.63779110437724
20
63.948642171978136
10
180.43779110437723
20
63.948642171978065
10
180.43779110437723
20
77.748642171978133
0
LWPOLYLINE
5
113
100
AcDbEntity
8
0
100
AcDbPolyline
90
4
70
1
43
0.0
10
270.0032780613605
20
63.879688770405458
10
256.39133873147961
20
64.076828638920333
10
256.19419755098721
20
77.686488395047078
10
269.99419587433687
20
77.679685781777565
0
LWPOLYLINE
5
114
100
AcDbEntity
8
0
100
AcDbPolyline
90
4
70
1
43
0.0
10
277.34860680471871
20
95.408944068061302
10
291.14860680471861
20
95.408944068061317
10
291.14860680471872
20
81.608944068061376
10
277.34860680471866
20
81.608944068061291
0
LWPOLYLINE
5
115
100
AcDbEntity
8
0
100
AcDbPolyline
90
4
70
1
43
0.0
10
315.37716576789109
20
204.03410924882141
10
301.57716576789107
20
204.03410924882141
10
301.57716576789107
20
190.23410924882143
10
315.3771657678912
20
190.23410924882137
0
LWPOLYLINE
5
116
100
AcDbEntity
8
0
100
AcDbPolyline
90
4
70
1
43
0.0
10
343.89034325596845
20
189.59204952025746
10
343.89034325596845
20
203.39204952025756
10
330.09034325596843
20
203.39204952025756
10
330.09034325596843
20
189.59204952025758
0
LWPOLYLINE
5
117
100
AcDbEntity
8
0
100
AcDbPolyline
90
4
70
1
43
0.0
10
357.60100359043662
20
189.83172442036607
10
357.60100359043662
20
176.03172442036609
10
371.40100359043663
20
176.03172442036598
10
371.40100359043663
20
189.83172442036607
0
LWPOLYLINE
5
118
100
AcDbEntity
8
0
100
AcDbPolyline
90
4
70
1
43
0.0
10
253.84580901755328
20
94.941777585948714
10
267.64580901755329
20
94.941777585948643
10
267.64580901755329
20
108.74177758594871
10
253.84580901755328
20
108.74177758594871
0
LWPOLYLINE
5
119
100
AcDbEntity
8
0
100
AcDbPolyline
90
4
70
1
43
0.0
10
312.74417954744268
20
112.68737375080568
10
298.94417954744267
20
112.68737375080568
10
298.94417954744267
20
98.887373750805665
10
312.74417954744268
20
98.887373750805594
0
LWPOLYLINE
5
120
100
AcDbEntity
8
0
100
AcDbPolyline
90
4
70
1
43
0.0
10
288.71388420569781
20
112.73858741853971
10
288.71388420569781
20
126.53858741853979
10
274.91388420569785
20
126.53858741853979
10
274.91388420569785
20
112.73858741853978
0
CIRCLE
5
121
100
AcDbEntity
8
0
100
AcDbCircle
10
266.19851632180746
20
214.78164327206889
30
0
40
1.5000000000000002
210
0
220
0
230
1
0
CIRCLE
5
122
100
AcDbEntity
8
0
100
AcDbCircle
10
170.6029810023183
20
214.78164327206883
30
0
40
1.5000000000000002
210
0
220
0
230
1
0
CIRCLE
5
123
100
AcDbEntity
8
0
100
AcDbCircle
10
86.000001281499749
20
214.78164327206869
30
0
40
1.5000000000000002
210
0
220
0
230
1
0
CIRCLE
5
124
100
AcDbEntity
8
0
100
AcDbCircle
10
55.200748662063006
20
185
30
0
40
1.5000000000000002
210
0
220
0
230
1
0
CIRCLE
5
125
100
AcDbEntity
8
0
100
AcDbCircle
10
55.200748662063006
20
133.1816432720689
30
0
40
1.5000000000000002
210
0
220
0
230
1
0
CIRCLE
5
126
100
AcDbEntity
8
0
100
AcDbCircle
10
55.200748662063077
20
81.363286544137793
30
0
40
1.5000000000000002
210
0
220
0
230
1
0
CIRCLE
5
127
100
AcDbEntity
8
0
100
AcDbCircle
10
86.000001281499863
20
51.581643272069101
30
0
40
1.5000000000000002
210
0
220
0
230
1
0
CIRCLE
5
128
100
AcDbEntity
8
0
100
AcDbCircle
10
170.60298100231842
20
51.581643272069101
30
0
40
1.5000000000000002
210
0
220
0
230
1
0
CIRCLE
5
129
100
AcDbEntity
8
0
100
AcDbCircle
10
266.19851632180757
20
51.581643272069151
30
0
40
1.5000000000000002
210
0
220
0
230
1
0
CIRCLE
5
130
100
AcDbEntity
8
0
100
AcDbCircle
10
350.80149604262613
20
51.581643272069257
30
0
40
1.5000000000000002
210
0
220
0
230
1
0
CIRCLE
5
131
100
AcDbEntity
8
0
100
AcDbCircle
10
381.60074866206281
20
81.363286544137992
30
0
40
1.5000000000000002
210
0
220
0
230
1
0
CIRCLE
5
132
100
AcDbEntity
8
0
100
AcDbCircle
10
381.60074866206287
20
133.1816432720691
30
0
40
1.5000000000000002
210
0
220
0
230
1
0
CIRCLE
5
133
100
AcDbEntity
8
0
100
AcDbCircle
10
381.60074866206276
20
185.00000000000023
30
0
40
1.5000000000000002
210
0
220
0
230
1
0
CIRCLE
5
134
100
AcDbEntity
8
0
100
AcDbCircle
10
350.80149604262607
20
214.78164327206889
30
0
40
1.5000000000000002
210
0
220
0
230
1
0
ENDSEC
0
SECTION
2
OBJECTS
0
DICTIONARY
5
C
100
AcDbDictionary
3
ACAD_GROUP
350
D
3
ACAD_MLINESTYLE
350
17
0
DICTIONARY
5
D
100
AcDbDictionary
0
DICTIONARY
5
1A
330
C
100
AcDbDictionary
0
DICTIONARY
5
17
100
AcDbDictionary
0
ENDSEC
0
EOF
