0
SECTION
2
HEADER
9
$INSUNITS
70
4
9
$ACADVER
1
AC1014
9
$HANDSEED
5
FFFF
0
ENDSEC
0
SECTION
2
TABLES
0
TABLE
2
VPORT
5
8
100
AcDbSymbolTable
0
ENDTAB
0
TABLE
2
LTYPE
5
5
100
AcDbSymbolTable
0
LTYPE
5
14
100
AcDbSymbolTableRecord
100
AcDbLinetypeTableRecord
2
BYBLOCK
70
0
0
LTYPE
5
15
100
AcDbSymbolTableRecord
100
AcDbLinetypeTableRecord
2
BYLAYER
70
0
0
ENDTAB
0
TABLE
2
LAYER
5
2
100
AcDbSymbolTable
70
2
0
LAYER
5
50
100
AcDbSymbolTableRecord
100
AcDbLayerTableRecord
2
0
70
0
6
CONTINUOUS
0
ENDTAB
0
TABLE
2
STYLE
5
3
100
AcDbSymbolTable
70
1
0
STYLE
5
11
100
AcDbSymbolTableRecord
100
AcDbTextStyleTableRecord
2
STANDARD
70
0
0
ENDTAB
0
TABLE
2
VIEW
5
6
100
AcDbSymbolTable
70
0
0
ENDTAB
0
TABLE
2
UCS
5
7
100
AcDbSymbolTable
70
0
0
ENDTAB
0
TABLE
2
APPID
5
9
100
AcDbSymbolTable
70
2
0
APPID
5
12
100
AcDbSymbolTableRecord
100
AcDbRegAppTableRecord
2
ACAD
70
0
0
ENDTAB
0
TABLE
2
DIMSTYLE
5
A
100
AcDbSymbolTable
70
1
0
ENDTAB
0
TABLE
2
BLOCK_RECORD
5
1
100
AcDbSymbolTable
70
1
0
BLOCK_RECORD
5
1F
100
AcDbSymbolTableRecord
100
AcDbBlockTableRecord
2
*MODEL_SPACE
0
BLOCK_RECORD
5
1B
100
AcDbSymbolTableRecord
100
AcDbBlockTableRecord
2
*PAPER_SPACE
0
ENDTAB
0
ENDSEC
0
SECTION
2
BLOCKS
0
BLOCK
5
20
100
AcDbEntity
100
AcDbBlockBegin
2
*MODEL_SPACE
0
ENDBLK
5
21
100
AcDbEntity
100
AcDbBlockEnd
0
BLOCK
5
1C
100
AcDbEntity
100
AcDbBlockBegin
2
*PAPER_SPACE
0
ENDBLK
5
1D
100
AcDbEntity
100
AcDbBlockEnd
0
ENDSEC
0
SECTION
2
ENTITIES
0
LWPOLYLINE
5
100
100
AcDbEntity
8
0
100
AcDbPolyline
90
8
70
1
43
0.0
10
361.60074866206293
20
219.78164327206883
42
-0.41421356237309503
10
386.60074866206293
20
194.78164327206883
10
386.60074866206276
20
71.581643272068902
42
-0.4142135623730942
10
361.60074866206298
20
46.581643272069101
10
75.200748662063035
20
46.581643272069101
42
-0.41421356237309309
10
50.200748662063077
20
71.581643272068902
10
50.200748662063077
20
194.78164327206883
42
-0.41421356237309503
10
75.200748662063077
20
219.78164327206883
0
LINE
5
101
100
AcDbEntity
8
0
100
AcDbLine
10
218.53266355567999
20
140.37136299206881
30
0
11
218.53266355568007
21
25
31
0
0
LINE
5
102
100
AcDbEntity
8
0
100
AcDbLine
10
79.573087130345527
20
145.38300914135166
30
0
11
59.573087130345527
21
145.38300914135166
31
0
0
LINE
5
103
100
AcDbEntity
8
0
100
AcDbLine
10
59.573087130345527
20
145.38300914135166
30
0
11
59.573087130345527
21
165.38300914135164
31
0
0
LINE
5
104
100
AcDbEntity
8
0
100
AcDbLine
10
59.573087130345527
20
165.38300914135164
30
0
11
79.573087130345527
21
165.38300914135164
31
0
0
LINE
5
105
100
AcDbEntity
8
0
100
AcDbLine
10
79.573087130345527
20
165.38300914135164
30
0
11
79.573087130345527
21
145.38300914135166
31
0
0
LINE
5
106
100
AcDbEntity
8
0
100
AcDbLine
10
79.573087130345527
20
145.38300914135166
30
0
11
59.573087130345527
21
165.38300914135164
31
0
0
LINE
5
107
100
AcDbEntity
8
0
100
AcDbLine
10
59.573087130345527
20
145.38300914135166
30
0
11
79.573087130345527
21
165.38300914135164
31
0
0
LINE
5
108
100
AcDbEntity
8
0
100
AcDbLine
10
87.972636353702427
20
159.83222313013212
30
0
11
87.972636353702427
21
179.83222313013212
31
0
0
LINE
5
109
100
AcDbEntity
8
0
100
AcDbLine
10
87.972636353702427
20
159.83222313013212
30
0
11
107.97263635370243
21
179.83222313013212
31
0
0
LINE
5
110
100
AcDbEntity
8
0
100
AcDbLine
10
107.97263635370237
20
159.83222313013206
30
0
11
87.972636353702427
21
179.83222313013212
31
0
0
LINE
5
111
100
AcDbEntity
8
0
100
AcDbLine
10
87.972636353702427
20
179.83222313013212
30
0
11
107.97263635370243
21
179.83222313013212
31
0
0
LINE
5
112
100
AcDbEntity
8
0
100
AcDbLine
10
107.97263635370243
20
179.83222313013212
30
0
11
107.97263635370237
21
159.83222313013206
31
0
0
LINE
5
113
100
AcDbEntity
8
0
100
AcDbLine
10
107.97263635370237
20
159.83222313013206
30
0
11
87.972636353702427
21
159.83222313013212
31
0
0
LINE
5
114
100
AcDbEntity
8
0
100
AcDbLine
10
136.49476379116857
20
159.68769235942864
30
0
11
116.49476379116855
21
179.68769235942872
31
0
0
LINE
5
115
100
AcDbEntity
8
0
100
AcDbLine
10
116.49476379116855
20
159.68769235942869
30
0
11
116.49476379116855
21
179.68769235942872
31
0
0
LINE
5
116
100
AcDbEntity
8
0
100
AcDbLine
10
116.49476379116855
20
159.68769235942869
30
0
11
136.49476379116862
21
179.68769235942872
31
0
0
LINE
5
117
100
AcDbEntity
8
0
100
AcDbLine
10
136.49476379116857
20
159.68769235942864
30
0
11
116.49476379116855
21
159.68769235942869
31
0
0
LINE
5
118
100
AcDbEntity
8
0
100
AcDbLine
10
116.49476379116855
20
179.68769235942872
30
0
11
136.49476379116862
21
179.68769235942872
31
0
0
LINE
5
119
100
AcDbEntity
8
0
100
AcDbLine
10
136.49476379116862
20
179.68769235942872
30
0
11
136.49476379116857
21
159.68769235942864
31
0
0
LINE
5
120
100
AcDbEntity
8
0
100
AcDbLine
10
160.74129440541074
20
146.34426782543372
30
0
11
140.74129440541074
21
146.34426782543363
31
0
0
LINE
5
121
100
AcDbEntity
8
0
100
AcDbLine
10
140.74129440541074
20
146.34426782543363
30
0
11
160.74129440541074
21
166.34426782543358
31
0
0
LINE
5
122
100
AcDbEntity
8
0
100
AcDbLine
10
160.74129440541074
20
146.34426782543372
30
0
11
140.74129440541074
21
166.3442678254336
31
0
0
LINE
5
123
100
AcDbEntity
8
0
100
AcDbLine
10
160.74129440541074
20
166.34426782543358
30
0
11
160.74129440541074
21
146.34426782543372
31
0
0
LINE
5
124
100
AcDbEntity
8
0
100
AcDbLine
10
140.74129440541074
20
166.3442678254336
30
0
11
160.74129440541074
21
166.34426782543358
31
0
0
LINE
5
125
100
AcDbEntity
8
0
100
AcDbLine
10
140.74129440541074
20
146.34426782543363
30
0
11
140.74129440541074
21
166.3442678254336
31
0
0
LINE
5
126
100
AcDbEntity
8
0
100
AcDbLine
10
296.06020291871505
20
145.45537893654472
30
0
11
276.06020291871505
21
165.4553789365448
31
0
0
LINE
5
127
100
AcDbEntity
8
0
100
AcDbLine
10
276.06020291871505
20
165.4553789365448
30
0
11
296.06020291871505
21
165.4553789365448
31
0
0
LINE
5
128
100
AcDbEntity
8
0
100
AcDbLine
10
276.06020291871505
20
145.45537893654478
30
0
11
296.06020291871505
21
165.4553789365448
31
0
0
LINE
5
129
100
AcDbEntity
8
0
100
AcDbLine
10
296.06020291871505
20
145.45537893654472
30
0
11
276.06020291871505
21
145.45537893654478
31
0
0
LINE
5
130
100
AcDbEntity
8
0
100
AcDbLine
10
276.06020291871505
20
145.45537893654478
30
0
11
276.06020291871505
21
165.4553789365448
31
0
0
LINE
5
131
100
AcDbEntity
8
0
100
AcDbLine
10
296.06020291871505
20
165.4553789365448
30
0
11
296.06020291871505
21
145.45537893654472
31
0
0
LINE
5
132
100
AcDbEntity
8
0
100
AcDbLine
10
321.19562242184605
20
159.68769235942875
30
0
11
301.19562242184611
21
179.68769235942884
31
0
0
LINE
5
133
100
AcDbEntity
8
0
100
AcDbLine
10
301.19562242184611
20
179.68769235942884
30
0
11
321.19562242184611
21
179.68769235942884
31
0
0
LINE
5
134
100
AcDbEntity
8
0
100
AcDbLine
10
321.19562242184611
20
179.68769235942884
30
0
11
321.19562242184605
21
159.68769235942875
31
0
0
LINE
5
135
100
AcDbEntity
8
0
100
AcDbLine
10
321.19562242184605
20
159.68769235942875
30
0
11
301.19562242184611
21
159.68769235942884
31
0
0
LINE
5
136
100
AcDbEntity
8
0
100
AcDbLine
10
301.19562242184611
20
159.68769235942884
30
0
11
321.19562242184611
21
179.68769235942884
31
0
0
LINE
5
137
100
AcDbEntity
8
0
100
AcDbLine
10
301.19562242184611
20
159.68769235942884
30
0
11
301.19562242184611
21
179.68769235942884
31
0
0
LINE
5
138
100
AcDbEntity
8
0
100
AcDbLine
10
329.71774985931228
20
178.94333424124338
30
0
11
349.71774985931228
21
178.94333424124338
31
0
0
LINE
5
139
100
AcDbEntity
8
0
100
AcDbLine
10
329.71774985931228
20
158.94333424124341
30
0
11
329.71774985931228
21
178.94333424124338
31
0
0
LINE
5
140
100
AcDbEntity
8
0
100
AcDbLine
10
329.71774985931228
20
158.94333424124341
30
0
11
349.71774985931228
21
178.94333424124338
31
0
0
LINE
5
141
100
AcDbEntity
8
0
100
AcDbLine
10
349.71774985931228
20
158.94333424124335
30
0
11
329.71774985931228
21
158.94333424124341
31
0
0
LINE
5
142
100
AcDbEntity
8
0
100
AcDbLine
10
349.71774985931228
20
178.94333424124338
30
0
11
349.71774985931228
21
158.94333424124335
31
0
0
LINE
5
143
100
AcDbEntity
8
0
100
AcDbLine
10
349.71774985931228
20
158.94333424124335
30
0
11
329.71774985931228
21
178.94333424124338
31
0
0
LINE
5
144
100
AcDbEntity
8
0
100
AcDbLine
10
377.22841019378029
20
165.38300914135189
30
0
11
377.22841019378029
21
145.38300914135183
31
0
0
LINE
5
145
100
AcDbEntity
8
0
100
AcDbLine
10
357.22841019378029
20
165.38300914135189
30
0
11
377.22841019378029
21
165.38300914135189
31
0
0
LINE
5
146
100
AcDbEntity
8
0
100
AcDbLine
10
357.22841019378029
20
145.38300914135189
30
0
11
377.22841019378029
21
165.38300914135189
31
0
0
LINE
5
147
100
AcDbEntity
8
0
100
AcDbLine
10
377.22841019378029
20
145.38300914135183
30
0
11
357.22841019378029
21
165.38300914135189
31
0
0
LINE
5
148
100
AcDbEntity
8
0
100
AcDbLine
10
357.22841019378029
20
145.38300914135189
30
0
11
357.22841019378029
21
165.38300914135189
31
0
0
LINE
5
149
100
AcDbEntity
8
0
100
AcDbLine
10
377.22841019378029
20
145.38300914135183
30
0
11
357.22841019378029
21
145.38300914135189
31
0
0
LINE
5
150
100
AcDbEntity
8
0
100
AcDbLine
10
273.66927346825759
20
172.78382760748585
30
0
11
293.66927346825759
21
192.78382760748576
31
0
0
LINE
5
151
100
AcDbEntity
8
0
100
AcDbLine
10
293.66927346825759
20
192.78382760748576
30
0
11
293.66927346825759
21
172.78382760748576
31
0
0
LINE
5
152
100
AcDbEntity
8
0
100
AcDbLine
10
293.66927346825759
20
172.78382760748576
30
0
11
273.66927346825759
21
172.78382760748585
31
0
0
LINE
5
153
100
AcDbEntity
8
0
100
AcDbLine
10
273.66927346825759
20
172.78382760748585
30
0
11
273.66927346825759
21
192.78382760748576
31
0
0
LINE
5
154
100
AcDbEntity
8
0
100
AcDbLine
10
293.66927346825759
20
172.78382760748576
30
0
11
273.66927346825759
21
192.78382760748576
31
0
0
LINE
5
155
100
AcDbEntity
8
0
100
AcDbLine
10
273.66927346825759
20
192.78382760748576
30
0
11
293.66927346825759
21
192.78382760748576
31
0
0
LINE
5
156
100
AcDbEntity
8
0
100
AcDbLine
10
228.84519310650739
20
149.92691854762444
30
0
11
228.84519310650739
21
129.92691854762435
31
0
0
LINE
5
157
100
AcDbEntity
8
0
100
AcDbLine
10
208.84519310650742
20
149.92691854762444
30
0
11
228.84519310650739
21
149.92691854762444
31
0
0
LINE
5
158
100
AcDbEntity
8
0
100
AcDbLine
10
228.84519310650739
20
129.92691854762435
30
0
11
208.84519310650739
21
129.92691854762444
31
0
0
LINE
5
159
100
AcDbEntity
8
0
100
AcDbLine
10
228.84519310650739
20
129.92691854762435
30
0
11
208.84519310650742
21
149.92691854762444
31
0
0
LINE
5
160
100
AcDbEntity
8
0
100
AcDbLine
10
208.84519310650739
20
129.92691854762444
30
0
11
208.84519310650742
21
149.92691854762444
31
0
0
LINE
5
161
100
AcDbEntity
8
0
100
AcDbLine
10
208.84519310650739
20
129.92691854762444
30
0
11
228.84519310650739
21
149.92691854762444
31
0
0
LINE
5
162
100
AcDbEntity
8
0
100
AcDbLine
10
162.7770276352465
20
98.513110734727874
30
0
11
162.7770276352465
21
78.513110734727817
31
0
0
LINE
5
163
100
AcDbEntity
8
0
100
AcDbLine
10
162.7770276352465
20
78.513110734727817
30
0
11
142.77702763524655
21
98.513110734727874
31
0
0
LINE
5
164
100
AcDbEntity
8
0
100
AcDbLine
10
142.7770276352465
20
78.513110734727888
30
0
11
142.77702763524655
21
98.513110734727874
31
0
0
LINE
5
165
100
AcDbEntity
8
0
100
AcDbLine
10
162.7770276352465
20
78.513110734727817
30
0
11
142.7770276352465
21
78.513110734727888
31
0
0
LINE
5
166
100
AcDbEntity
8
0
100
AcDbLine
10
142.77702763524655
20
98.513110734727874
30
0
11
162.7770276352465
21
98.513110734727874
31
0
0
LINE
5
167
100
AcDbEntity
8
0
100
AcDbLine
10
142.7770276352465
20
78.513110734727888
30
0
11
162.7770276352465
21
98.513110734727874
31
0
0
LINE
5
168
100
AcDbEntity
8
0
100
AcDbLine
10
163.84510282339107
20
60.716300902136872
30
0
11
163.84510282339107
21
80.716300902136879
31
0
0
LINE
5
169
100
AcDbEntity
8
0
100
AcDbLine
10
163.84510282339107
20
80.716300902136879
30
0
11
183.84510282339107
21
80.716300902136879
31
0
0
LINE
5
170
100
AcDbEntity
8
0
100
AcDbLine
10
183.84510282339104
20
60.716300902136801
30
0
11
163.84510282339107
21
80.716300902136879
31
0
0
LINE
5
171
100
AcDbEntity
8
0
100
AcDbLine
10
183.84510282339107
20
80.716300902136879
30
0
11
183.84510282339104
21
60.716300902136801
31
0
0
LINE
5
172
100
AcDbEntity
8
0
100
AcDbLine
10
163.84510282339107
20
60.716300902136872
30
0
11
183.84510282339107
21
80.716300902136879
31
0
0
LINE
5
173
100
AcDbEntity
8
0
100
AcDbLine
10
183.84510282339104
20
60.716300902136801
30
0
11
163.84510282339107
21
60.716300902136872
31
0
0
LWPOLYLINE
5
174
100
AcDbEntity
8
0
100
AcDbPolyline
90
6
70
1
43
0.0
10
273.22022428796896
20
60.716300902136936
10
253.22022428796896
20
60.716300902136844
10
273.22022428796896
20
80.716300902136936
10
253.22022428796902
20
80.716300902136808
10
273.22022428796896
20
60.716300902136936
10
273.22022428796896
20
80.716300902136936
0
LWPOLYLINE
5
175
100
AcDbEntity
8
0
100
AcDbPolyline
90
6
70
1
43
0.0
10
274.28829947611348
20
98.513110734727945
10
294.28829947611348
20
98.513110734727974
10
294.28829947611354
20
78.513110734727974
10
274.28829947611342
20
78.513110734727874
10
274.28829947611348
20
98.513110734727945
10
294.28829947611354
20
78.513110734727974
0
LINE
5
176
100
AcDbEntity
8
0
100
AcDbLine
10
298.8247848155101
20
206.78649020120241
30
0
11
318.82478481551016
21
206.78649020120241
31
0
0
LINE
5
177
100
AcDbEntity
8
0
100
AcDbLine
10
318.82478481551021
20
186.7864902012023
30
0
11
298.82478481551016
21
186.78649020120235
31
0
0
LINE
5
178
100
AcDbEntity
8
0
100
AcDbLine
10
298.82478481551016
20
186.78649020120235
30
0
11
318.82478481551016
21
206.78649020120241
31
0
0
LINE
5
179
100
AcDbEntity
8
0
100
AcDbLine
10
318.82478481551021
20
186.7864902012023
30
0
11
298.8247848155101
21
206.78649020120241
31
0
0
LINE
5
180
100
AcDbEntity
8
0
100
AcDbLine
10
298.82478481551016
20
186.78649020120235
30
0
11
298.8247848155101
21
206.78649020120241
31
0
0
LINE
5
181
100
AcDbEntity
8
0
100
AcDbLine
10
318.82478481551016
20
206.78649020120241
30
0
11
318.82478481551021
21
186.7864902012023
31
0
0
LINE
5
182
100
AcDbEntity
8
0
100
AcDbLine
10
347.33796230358746
20
206.14443047263848
30
0
11
347.33796230358746
21
186.14443047263845
31
0
0
LINE
5
183
100
AcDbEntity
8
0
100
AcDbLine
10
327.33796230358746
20
206.14443047263848
30
0
11
347.33796230358746
21
206.14443047263848
31
0
0
LINE
5
184
100
AcDbEntity
8
0
100
AcDbLine
10
327.33796230358746
20
186.14443047263853
30
0
11
327.33796230358746
21
206.14443047263848
31
0
0
LINE
5
185
100
AcDbEntity
8
0
100
AcDbLine
10
347.33796230358746
20
186.14443047263845
30
0
11
327.33796230358746
21
186.14443047263853
31
0
0
LINE
5
186
100
AcDbEntity
8
0
100
AcDbLine
10
347.33796230358746
20
186.14443047263845
30
0
11
327.33796230358746
21
206.14443047263848
31
0
0
LINE
5
187
100
AcDbEntity
8
0
100
AcDbLine
10
327.33796230358746
20
186.14443047263853
30
0
11
347.33796230358746
21
206.14443047263848
31
0
0
LINE
5
188
100
AcDbEntity
8
0
100
AcDbLine
10
354.84862263805559
20
172.58410537274702
30
0
11
354.84862263805559
21
192.58410537274702
31
0
0
LINE
5
189
100
AcDbEntity
8
0
100
AcDbLine
10
374.84862263805559
20
172.58410537274693
30
0
11
354.84862263805559
21
192.58410537274702
31
0
0
LINE
5
190
100
AcDbEntity
8
0
100
AcDbLine
10
374.84862263805559
20
172.58410537274693
30
0
11
354.84862263805559
21
172.58410537274702
31
0
0
LINE
5
191
100
AcDbEntity
8
0
100
AcDbLine
10
374.84862263805559
20
192.58410537274702
30
0
11
374.84862263805559
21
172.58410537274693
31
0
0
LINE
5
192
100
AcDbEntity
8
0
100
AcDbLine
10
354.84862263805559
20
192.58410537274702
30
0
11
374.84862263805559
21
192.58410537274702
31
0
0
LINE
5
193
100
AcDbEntity
8
0
100
AcDbLine
10
354.84862263805559
20
172.58410537274702
30
0
11
374.84862263805559
21
192.58410537274702
31
0
0
LWPOLYLINE
5
194
100
AcDbEntity
8
0
100
AcDbPolyline
90
6
70
1
43
0.0
10
271.09342806517236
20
111.49415853832966
10
251.09342806517233
20
91.494158538329643
10
271.0934280651723
20
91.494158538329572
10
251.09342806517233
20
111.49415853832966
10
271.09342806517236
20
111.49415853832966
10
271.0934280651723
20
91.494158538329572
0
LWPOLYLINE
5
195
100
AcDbEntity
8
0
100
AcDbPolyline
90
6
70
1
43
0.0
10
316.19179859506175
20
115.43975470318662
10
296.19179859506181
20
115.43975470318662
10
296.19179859506181
20
95.439754703186622
10
316.1917985950617
20
95.439754703186551
10
316.19179859506175
20
115.43975470318662
10
296.19179859506181
20
95.439754703186622
0
LINE
5
196
100
AcDbEntity
8
0
100
AcDbLine
10
292.16150325331688
20
129.29096837092072
30
0
11
292.16150325331688
21
109.29096837092067
31
0
0
LINE
5
197
100
AcDbEntity
8
0
100
AcDbLine
10
292.16150325331688
20
109.29096837092067
30
0
11
272.16150325331688
21
109.29096837092074
31
0
0
LINE
5
198
100
AcDbEntity
8
0
100
AcDbLine
10
272.16150325331688
20
109.29096837092074
30
0
11
272.16150325331688
21
129.29096837092072
31
0
0
LINE
5
199
100
AcDbEntity
8
0
100
AcDbLine
10
292.16150325331688
20
109.29096837092067
30
0
11
272.16150325331688
21
129.29096837092072
31
0
0
LINE
5
200
100
AcDbEntity
8
0
100
AcDbLine
10
272.16150325331688
20
129.29096837092072
30
0
11
292.16150325331688
21
129.29096837092072
31
0
0
LINE
5
201
100
AcDbEntity
8
0
100
AcDbLine
10
272.16150325331688
20
109.29096837092074
30
0
11
292.16150325331688
21
129.29096837092072
31
0
0
CIRCLE
5
202
100
AcDbEntity
8
0
100
AcDbCircle
10
266.19851632180746
20
214.78164327206889
30
0
40
1
210
0
220
0
230
1
0
CIRCLE
5
203
100
AcDbEntity
8
0
100
AcDbCircle
10
170.6029810023183
20
214.78164327206883
30
0
40
1
210
0
220
0
230
1
0
CIRCLE
5
204
100
AcDbEntity
8
0
100
AcDbCircle
10
86.000001281499749
20
214.78164327206869
30
0
40
1
210
0
220
0
230
1
0
CIRCLE
5
205
100
AcDbEntity
8
0
100
AcDbCircle
10
55.200748662063006
20
185
30
0
40
1
210
0
220
0
230
1
0
CIRCLE
5
206
100
AcDbEntity
8
0
100
AcDbCircle
10
55.200748662063006
20
133.1816432720689
30
0
40
1.5000000000000002
210
0
220
0
230
1
0
CIRCLE
5
207
100
AcDbEntity
8
0
100
AcDbCircle
10
55.200748662063077
20
81.363286544137793
30
0
40
1
210
0
220
0
230
1
0
CIRCLE
5
208
100
AcDbEntity
8
0
100
AcDbCircle
10
86.000001281499863
20
51.581643272069101
30
0
40
1
210
0
220
0
230
1
0
CIRCLE
5
209
100
AcDbEntity
8
0
100
AcDbCircle
10
170.60298100231842
20
51.581643272069101
30
0
40
1
210
0
220
0
230
1
0
CIRCLE
5
210
100
AcDbEntity
8
0
100
AcDbCircle
10
266.19851632180757
20
51.581643272069151
30
0
40
1
210
0
220
0
230
1
0
CIRCLE
5
211
100
AcDbEntity
8
0
100
AcDbCircle
10
350.80149604262613
20
51.581643272069257
30
0
40
1
210
0
220
0
230
1
0
CIRCLE
5
212
100
AcDbEntity
8
0
100
AcDbCircle
10
381.60074866206281
20
81.363286544137992
30
0
40
1
210
0
220
0
230
1
0
CIRCLE
5
213
100
AcDbEntity
8
0
100
AcDbCircle
10
381.60074866206287
20
133.1816432720691
30
0
40
1
210
0
220
0
230
1
0
CIRCLE
5
214
100
AcDbEntity
8
0
100
AcDbCircle
10
381.60074866206276
20
185.00000000000023
30
0
40
1
210
0
220
0
230
1
0
CIRCLE
5
215
100
AcDbEntity
8
0
100
AcDbCircle
10
350.80149604262607
20
214.78164327206889
30
0
40
1
210
0
220
0
230
1
0
ENDSEC
0
SECTION
2
OBJECTS
0
DICTIONARY
5
C
100
AcDbDictionary
3
ACAD_GROUP
350
D
3
ACAD_MLINESTYLE
350
17
0
DICTIONARY
5
D
100
AcDbDictionary
0
DICTIONARY
5
1A
330
C
100
AcDbDictionary
0
DICTIONARY
5
17
100
AcDbDictionary
0
ENDSEC
0
EOF
